<svg width="40" height="40" viewBox="0 0 40 40" fill="none" xmlns="http://www.w3.org/2000/svg">
<g clip-path="url(#clip0_1_20)">
<path d="M3.75 2.5C3.41848 2.5 3.10054 2.6317 2.86612 2.86612C2.6317 3.10054 2.5 3.41848 2.5 3.75V11.25C2.5 11.5815 2.3683 11.8995 2.13388 12.1339C1.89946 12.3683 1.58152 12.5 1.25 12.5C0.918479 12.5 0.600537 12.3683 0.366117 12.1339C0.131696 11.8995 0 11.5815 0 11.25V3.75C0 2.75544 0.395088 1.80161 1.09835 1.09835C1.80161 0.395088 2.75544 0 3.75 0L11.25 0C11.5815 0 11.8995 0.131696 12.1339 0.366117C12.3683 0.600537 12.5 0.918479 12.5 1.25C12.5 1.58152 12.3683 1.89946 12.1339 2.13388C11.8995 2.3683 11.5815 2.5 11.25 2.5H3.75ZM27.5 1.25C27.5 0.918479 27.6317 0.600537 27.8661 0.366117C28.1005 0.131696 28.4185 0 28.75 0L36.25 0C37.2446 0 38.1984 0.395088 38.9016 1.09835C39.6049 1.80161 40 2.75544 40 3.75V11.25C40 11.5815 39.8683 11.8995 39.6339 12.1339C39.3995 12.3683 39.0815 12.5 38.75 12.5C38.4185 12.5 38.1005 12.3683 37.8661 12.1339C37.6317 11.8995 37.5 11.5815 37.5 11.25V3.75C37.5 3.41848 37.3683 3.10054 37.1339 2.86612C36.8995 2.6317 36.5815 2.5 36.25 2.5H28.75C28.4185 2.5 28.1005 2.3683 27.8661 2.13388C27.6317 1.89946 27.5 1.58152 27.5 1.25ZM1.25 27.5C1.58152 27.5 1.89946 27.6317 2.13388 27.8661C2.3683 28.1005 2.5 28.4185 2.5 28.75V36.25C2.5 36.5815 2.6317 36.8995 2.86612 37.1339C3.10054 37.3683 3.41848 37.5 3.75 37.5H11.25C11.5815 37.5 11.8995 37.6317 12.1339 37.8661C12.3683 38.1005 12.5 38.4185 12.5 38.75C12.5 39.0815 12.3683 39.3995 12.1339 39.6339C11.8995 39.8683 11.5815 40 11.25 40H3.75C2.75544 40 1.80161 39.6049 1.09835 38.9016C0.395088 38.1984 0 37.2446 0 36.25L0 28.75C0 28.4185 0.131696 28.1005 0.366117 27.8661C0.600537 27.6317 0.918479 27.5 1.25 27.5ZM38.75 27.5C39.0815 27.5 39.3995 27.6317 39.6339 27.8661C39.8683 28.1005 40 28.4185 40 28.75V36.25C40 37.2446 39.6049 38.1984 38.9016 38.9016C38.1984 39.6049 37.2446 40 36.25 40H28.75C28.4185 40 28.1005 39.8683 27.8661 39.6339C27.6317 39.3995 27.5 39.0815 27.5 38.75C27.5 38.4185 27.6317 38.1005 27.8661 37.8661C28.1005 37.6317 28.4185 37.5 28.75 37.5H36.25C36.5815 37.5 36.8995 37.3683 37.1339 37.1339C37.3683 36.8995 37.5 36.5815 37.5 36.25V28.75C37.5 28.4185 37.6317 28.1005 37.8661 27.8661C38.1005 27.6317 38.4185 27.5 38.75 27.5ZM7.5 11.25C7.5 10.9185 7.6317 10.6005 7.86612 10.3661C8.10054 10.1317 8.41848 10 8.75 10C9.08152 10 9.39946 10.1317 9.63388 10.3661C9.8683 10.6005 10 10.9185 10 11.25V28.75C10 29.0815 9.8683 29.3995 9.63388 29.6339C9.39946 29.8683 9.08152 30 8.75 30C8.41848 30 8.10054 29.8683 7.86612 29.6339C7.6317 29.3995 7.5 29.0815 7.5 28.75V11.25ZM12.5 11.25C12.5 10.9185 12.6317 10.6005 12.8661 10.3661C13.1005 10.1317 13.4185 10 13.75 10C14.0815 10 14.3995 10.1317 14.6339 10.3661C14.8683 10.6005 15 10.9185 15 11.25V28.75C15 29.0815 14.8683 29.3995 14.6339 29.6339C14.3995 29.8683 14.0815 30 13.75 30C13.4185 30 13.1005 29.8683 12.8661 29.6339C12.6317 29.3995 12.5 29.0815 12.5 28.75V11.25ZM17.5 11.25C17.5 10.9185 17.6317 10.6005 17.8661 10.3661C18.1005 10.1317 18.4185 10 18.75 10C19.0815 10 19.3995 10.1317 19.6339 10.3661C19.8683 10.6005 20 10.9185 20 11.25V28.75C20 29.0815 19.8683 29.3995 19.6339 29.6339C19.3995 29.8683 19.0815 30 18.75 30C18.4185 30 18.1005 29.8683 17.8661 29.6339C17.6317 29.3995 17.5 29.0815 17.5 28.75V11.25ZM22.5 11.25C22.5 10.9185 22.6317 10.6005 22.8661 10.3661C23.1005 10.1317 23.4185 10 23.75 10H26.25C26.5815 10 26.8995 10.1317 27.1339 10.3661C27.3683 10.6005 27.5 10.9185 27.5 11.25V28.75C27.5 29.0815 27.3683 29.3995 27.1339 29.6339C26.8995 29.8683 26.5815 30 26.25 30H23.75C23.4185 30 23.1005 29.8683 22.8661 29.6339C22.6317 29.3995 22.5 29.0815 22.5 28.75V11.25ZM30 11.25C30 10.9185 30.1317 10.6005 30.3661 10.3661C30.6005 10.1317 30.9185 10 31.25 10C31.5815 10 31.8995 10.1317 32.1339 10.3661C32.3683 10.6005 32.5 10.9185 32.5 11.25V28.75C32.5 29.0815 32.3683 29.3995 32.1339 29.6339C31.8995 29.8683 31.5815 30 31.25 30C30.9185 30 30.6005 29.8683 30.3661 29.6339C30.1317 29.3995 30 29.0815 30 28.75V11.25Z" fill="#2A9C96"/>
</g>
<defs>
<clipPath id="clip0_1_20">
<rect width="40" height="40" fill="white"/>
</clipPath>
</defs>
</svg>
