<svg width="40" height="40" viewBox="0 0 40 40" fill="none" xmlns="http://www.w3.org/2000/svg">
<g clip-path="url(#clip0_1_76)">
<path d="M19.9998 6.87006L18.2073 5.02756C13.9998 0.70256 6.28483 2.19506 3.49983 7.63256C2.19233 10.1901 1.89733 13.8826 4.28483 18.5951C6.58483 23.1326 11.3698 28.5676 19.9998 34.4876C28.6298 28.5676 33.4123 23.1326 35.7148 18.5951C38.1023 13.8801 37.8098 10.1901 36.4998 7.63256C33.7148 2.19506 25.9998 0.70006 21.7923 5.02506L19.9998 6.87006ZM19.9998 37.5001C-18.3327 12.1701 8.19733 -7.59994 19.5598 2.85756C19.7098 2.99506 19.8573 3.13756 19.9998 3.28506C20.1409 3.13769 20.2877 2.99592 20.4398 2.86006C31.7998 -7.60494 58.3323 12.1676 19.9998 37.5001Z" fill="#2A9C96"/>
</g>
<defs>
<clipPath id="clip0_1_76">
<rect width="40" height="40" fill="white"/>
</clipPath>
</defs>
</svg>
