<svg width="16" height="16" viewBox="0 0 16 16" fill="none" xmlns="http://www.w3.org/2000/svg">
<g clip-path="url(#clip0_1_73)">
<path d="M6.16698 8C5.94693 8.00026 5.73597 8.0878 5.58037 8.24339C5.42477 8.39899 5.33724 8.60995 5.33698 8.83C5.33698 9.289 5.70898 9.67 6.16698 9.661C6.38225 9.65353 6.58621 9.56276 6.73586 9.40783C6.88551 9.25289 6.96915 9.0459 6.96915 8.8305C6.96915 8.6151 6.88551 8.40811 6.73586 8.25317C6.58621 8.09824 6.38225 8.00747 6.16698 8ZM8.00998 11.647C8.32498 11.647 9.41298 11.609 9.98598 11.036C10.0231 10.9937 10.0436 10.9393 10.0436 10.883C10.0436 10.8267 10.0231 10.7723 9.98598 10.73C9.96612 10.7095 9.94234 10.6932 9.91606 10.6821C9.88977 10.6709 9.86152 10.6652 9.83298 10.6652C9.80443 10.6652 9.77618 10.6709 9.7499 10.6821C9.72361 10.6932 9.69983 10.7095 9.67998 10.73C9.32698 11.093 8.55398 11.217 8.00998 11.217C7.46498 11.217 6.70198 11.093 6.33898 10.73C6.31912 10.7095 6.29534 10.6932 6.26906 10.6821C6.24277 10.6709 6.21452 10.6652 6.18598 10.6652C6.15743 10.6652 6.12918 10.6709 6.10289 10.6821C6.07661 10.6932 6.05283 10.7095 6.03298 10.73C6.01247 10.7499 5.99617 10.7736 5.98503 10.7999C5.9739 10.8262 5.96816 10.8545 5.96816 10.883C5.96816 10.9115 5.9739 10.9398 5.98503 10.9661C5.99617 10.9924 6.01247 11.0161 6.03298 11.036C6.59698 11.599 7.68498 11.646 8.00998 11.646V11.647ZM9.00198 8.84C9.00198 9.298 9.37498 9.67 9.83298 9.67C10.291 9.67 10.663 9.289 10.663 8.84C10.6525 8.62692 10.5605 8.42602 10.406 8.27891C10.2515 8.1318 10.0463 8.04976 9.83298 8.04976C9.61964 8.04976 9.41447 8.1318 9.25996 8.27891C9.10545 8.42602 9.01344 8.62692 9.00298 8.84H9.00198Z" fill="black"/>
<path d="M16 8C16 10.1217 15.1571 12.1566 13.6569 13.6569C12.1566 15.1571 10.1217 16 8 16C5.87827 16 3.84344 15.1571 2.34315 13.6569C0.842855 12.1566 0 10.1217 0 8C0 5.87827 0.842855 3.84344 2.34315 2.34315C3.84344 0.842855 5.87827 0 8 0C10.1217 0 12.1566 0.842855 13.6569 2.34315C15.1571 3.84344 16 5.87827 16 8ZM12.172 6.835C11.857 6.835 11.57 6.959 11.36 7.16C10.559 6.587 9.46 6.215 8.239 6.167L8.773 3.666L10.511 4.038C10.5186 4.20028 10.5737 4.35675 10.6694 4.48802C10.7652 4.61928 10.8973 4.71957 11.0495 4.77646C11.2016 4.83334 11.3672 4.84432 11.5255 4.80802C11.6839 4.77173 11.8281 4.68976 11.9403 4.57228C12.0525 4.45479 12.1278 4.30696 12.1568 4.14711C12.1858 3.98726 12.1672 3.82242 12.1034 3.67302C12.0396 3.52361 11.9333 3.39622 11.7978 3.30662C11.6623 3.21703 11.5035 3.16918 11.341 3.169C11.1856 3.16954 11.0335 3.2137 10.902 3.29643C10.7704 3.37917 10.6648 3.49717 10.597 3.637L8.659 3.227C8.63291 3.22138 8.60597 3.22096 8.57971 3.22576C8.55346 3.23057 8.52841 3.2405 8.506 3.255C8.48264 3.26958 8.46281 3.28916 8.44794 3.31233C8.43306 3.33551 8.42352 3.36169 8.42 3.389L7.828 6.177C6.588 6.215 5.47 6.587 4.658 7.169C4.448 6.969 4.162 6.845 3.848 6.845C3.58171 6.84461 3.32334 6.93561 3.11608 7.10281C2.90881 7.27001 2.76521 7.50327 2.70925 7.76362C2.65329 8.02397 2.68838 8.29564 2.80864 8.53323C2.9289 8.77082 3.12706 8.95994 3.37 9.069C3.35 9.184 3.341 9.299 3.341 9.422C3.341 11.217 5.432 12.678 8.01 12.678C10.587 12.678 12.678 11.227 12.678 9.422C12.678 9.308 12.668 9.184 12.649 9.069C13.05 8.888 13.337 8.477 13.337 8C13.337 7.35 12.812 6.835 12.172 6.835Z" fill="black"/>
</g>
<defs>
<clipPath id="clip0_1_73">
<rect width="16" height="16" fill="white"/>
</clipPath>
</defs>
</svg>
