<svg width="42" height="50" viewBox="0 0 42 50" fill="none" xmlns="http://www.w3.org/2000/svg">
<path d="M39.5801 20.5962C42.8066 22.5994 42.8066 27.4006 39.5801 29.4038L7.61736 49.2481C4.27269 51.3247 0 48.8545 0 44.8443V5.15574C0 1.14552 4.27269 -1.32466 7.61736 0.751902L39.5801 20.5962Z" fill="#2A9C96"/>
<path d="M23.9803 19.0907L21.8877 22.2296C21.0682 23.4589 19.2507 23.4186 18.5023 22.1543L14.2904 15.0396C13.2223 13.2353 15.3147 11.2014 17.0884 12.3199L23.3928 16.2958C24.3394 16.8927 24.6046 18.1543 23.9803 19.0907Z" fill="white"/>
<path d="M35.3297 26.9118L19.6156 36.7206C17.7926 37.8586 15.7134 35.7318 16.8935 33.9362L26.0354 20.0259C26.635 19.1136 27.8515 18.8436 28.7725 19.4184L35.3448 23.5199C36.5959 24.3006 36.5878 26.1266 35.3297 26.9118Z" fill="white"/>
</svg>
