<svg width="50" height="50" viewBox="0 0 50 50" fill="none" xmlns="http://www.w3.org/2000/svg">
<rect width="50" height="50" rx="15" fill="#2A9C96"/>
<path fill-rule="evenodd" clip-rule="evenodd" d="M29.3273 10.2627C30.2331 10.7956 30.536 11.9628 30.0038 12.8698L27.2349 17.5891L34.8925 30.8699H40.0978C41.1484 30.8699 42 31.7226 42 32.7745C42 33.8265 41.1484 34.6792 40.0978 34.6792H37.089L39.0175 38.0239C39.5428 38.9348 39.231 40.0997 38.3212 40.6257C37.4114 41.1516 36.2481 40.8395 35.7228 39.9285L32.6961 34.6792H17.2075L14.0505 40.0598C13.5183 40.9668 12.3527 41.2701 11.4469 40.7373C10.5411 40.2044 10.2382 39.0372 10.7703 38.1302L12.7952 34.6792H8.90217C7.85163 34.6792 7 33.8265 7 32.7745C7 31.7226 7.85163 30.8699 8.90217 30.8699H15.0302L22.8323 17.5724L20.125 12.877C19.5997 11.966 19.9114 10.8012 20.8212 10.2752C21.731 9.74926 22.8944 10.0614 23.4197 10.9724L25.0479 13.7963L26.7237 10.9402C27.2558 10.0332 28.4215 9.7299 29.3273 10.2627ZM25.0193 21.3652L19.4426 30.8699H30.4996L25.0193 21.3652Z" fill="white"/>
</svg>
