<svg width="48" height="20" viewBox="0 0 48 20" fill="none" xmlns="http://www.w3.org/2000/svg">
<path d="M12 3.99999C13.5913 3.99999 15.1174 4.63213 16.2426 5.75735C17.3679 6.88256 18 8.40869 18 9.99999C18 11.5913 17.3679 13.1174 16.2426 14.2426C15.1174 15.3678 13.5913 16 12 16C10.4087 16 8.88258 15.3678 7.75736 14.2426C6.63214 13.1174 6 11.5913 6 9.99999C6 8.40869 6.63214 6.88256 7.75736 5.75735C8.88258 4.63213 10.4087 3.99999 12 3.99999ZM19.875 5.64099C18.9718 4.00674 17.5826 2.6939 15.9 1.88436C14.2173 1.07483 12.3246 0.808688 10.4839 1.12282C8.64331 1.43695 6.94596 2.31581 5.62707 3.6376C4.30819 4.95939 3.43308 6.65867 3.123 8.49999H1.5C1.10218 8.49999 0.720644 8.65802 0.43934 8.93933C0.158035 9.22063 0 9.60216 0 9.99999C0 10.3978 0.158035 10.7793 0.43934 11.0606C0.720644 11.342 1.10218 11.5 1.5 11.5H3.123C3.49528 13.7288 4.69233 15.736 6.47635 17.1228C8.26036 18.5096 10.5008 19.1746 12.7525 18.9857C15.0043 18.7968 17.1026 17.7677 18.6305 16.103C20.1585 14.4382 21.0043 12.2596 21 9.99999C21 9.20434 21.3161 8.44128 21.8787 7.87867C22.4413 7.31606 23.2044 6.99999 24 6.99999C24.7956 6.99999 25.5587 7.31606 26.1213 7.87867C26.6839 8.44128 27 9.20434 27 9.99999C26.9957 12.2596 27.8415 14.4382 29.3695 16.103C30.8974 17.7677 32.9957 18.7968 35.2475 18.9857C37.4992 19.1746 39.7396 18.5096 41.5237 17.1228C43.3077 15.736 44.5047 13.7288 44.877 11.5H46.5C46.8978 11.5 47.2794 11.342 47.5607 11.0606C47.842 10.7793 48 10.3978 48 9.99999C48 9.60216 47.842 9.22063 47.5607 8.93933C47.2794 8.65802 46.8978 8.49999 46.5 8.49999H44.877C44.5669 6.65867 43.6918 4.95939 42.3729 3.6376C41.054 2.31581 39.3567 1.43695 37.5161 1.12282C35.6754 0.808688 33.7827 1.07483 32.1 1.88436C30.4174 2.6939 29.0282 4.00674 28.125 5.64099C27.0116 4.58487 25.5346 3.99733 24 3.99999C22.404 3.99999 20.952 4.62399 19.875 5.64099ZM42 9.99999C42 11.5913 41.3679 13.1174 40.2426 14.2426C39.1174 15.3678 37.5913 16 36 16C34.4087 16 32.8826 15.3678 31.7574 14.2426C30.6321 13.1174 30 11.5913 30 9.99999C30 8.40869 30.6321 6.88256 31.7574 5.75735C32.8826 4.63213 34.4087 3.99999 36 3.99999C37.5913 3.99999 39.1174 4.63213 40.2426 5.75735C41.3679 6.88256 42 8.40869 42 9.99999Z" fill="#2A9C96"/>
</svg>
